# xmcd
#
# Track frame offsets:
#	150
#	15283
#	33218
#	56549
#	69966
#	83762
#	99837
#	111011
#	130422
#	151200
#	165265
#	180682
#	202377
#	217122
#
# Disc length: 2964 seconds
# Revision: 1
# Processed by: cddbd v1.5.2PL0 Copyright (c) Steve Scherf et al.
# Submitted via: dBpowerAMP V12.0
#
DISCID=ae0b920e
DTITLE=Ivas John Band - Doin' What's Natural
DYEAR=2012
DGENRE=Blues
TTITLE0=Light of Day
TTITLE1=Carolene
TTITLE2=Don't Say I'm Runnin'
TTITLE3=The Way Things Have to Be
TTITLE4=Good Potatoes
TTITLE5=Would it Make a Difference
TTITLE6=Used to Be
TTITLE7=The River Crossing
TTITLE8=Cruel to Me
TTITLE9=I Won't Make a Move
TTITLE10=The Carnival Song
TTITLE11=Hot Rod Mama
TTITLE12=It's too Soon
TTITLE13=The Last Act
EXTD=
EXTT0=
EXTT1=
EXTT2=
EXTT3=
EXTT4=
EXTT5=
EXTT6=
EXTT7=
EXTT8=
EXTT9=
EXTT10=
EXTT11=
EXTT12=
EXTT13=
PLAYORDER=
